<svg
  xmlns="http://www.w3.org/2000/svg"
  viewBox="0 0 100 100"
  width="64"
  height="64"
>
  <!-- Esfera -->
  <defs>
    <radialGradient id="shine" cx="30%" cy="30%" r="70%">
      <stop offset="0%" stop-color="#FFD27D"/>
      <stop offset="60%" stop-color="#FF9F1C"/>
      <stop offset="100%" stop-color="#D35400"/>
    </radialGradient>
  </defs>

  <circle cx="50" cy="50" r="45" fill="url(#shine)" stroke="#8B3A00" stroke-width="4"/>

  <!-- Brillo -->
  <ellipse cx="35" cy="30" rx="10" ry="6" fill="white" opacity="0.35"/>

  <!-- Estrellas -->
  <g fill="#C0392B">
    <polygon points="50,28 53,36 62,36 55,41 58,49 50,44 42,49 45,41 38,36 47,36"/>
    <polygon points="32,48 34,53 39,53 35,56 37,61 32,58 27,61 29,56 25,53 30,53"/>
    <polygon points="68,48 70,53 75,53 71,56 73,61 68,58 63,61 65,56 61,53 66,53"/>
    <polygon points="50,62 52,67 57,67 53,70 55,75 50,72 45,75 47,70 43,67 48,67"/>
  </g>
</svg>
